<?xml version="1.0" encoding="utf-8"?>
<!-- Generator: Adobe Illustrator 26.5.0, SVG Export Plug-In . SVG Version: 6.00 Build 0)  -->
<svg version="1.1" id="Layer_1" xmlns="http://www.w3.org/2000/svg" xmlns:xlink="http://www.w3.org/1999/xlink" x="0px" y="0px"
	 viewBox="0 0 100 100" style="enable-background:new 0 0 100 100;" xml:space="preserve">
<style type="text/css">
	.st0{fill:url(#SVGID_1_);}
	.st1{fill:#FFFFFF;}
</style>
<g transform="matrix(6.123233995736766e-17,-1,1,6.123233995736766e-17,-0.0003676414490030311,483.01362466812134)">
	
		<linearGradient id="SVGID_1_" gradientUnits="userSpaceOnUse" x1="-97.2815" y1="-913.8896" x2="-96.2815" y2="-913.8896" gradientTransform="matrix(0 89.075 100 0 91771.9297 8715.3545)">
		<stop  offset="0" style="stop-color:#009F4C"/>
		<stop  offset="1" style="stop-color:#C6D92D"/>
	</linearGradient>
	<path class="st0" d="M481.8,45.4l-20.4-35.3c-1.7-2.9-4.7-4.6-8-4.6h-40.8c-3.3,0-6.3,1.8-8,4.6l-20.4,35.3c-1.6,2.9-1.6,6.4,0,9.2
		l20.4,35.3c1.7,2.9,4.7,4.6,8,4.6h40.8c3.3,0,6.3-1.8,8-4.6l20.4-35.3C483.4,51.8,483.4,48.2,481.8,45.4z"/>
</g>
<g transform="scale(11) translate(6 6)">
	<path class="st1" d="M0.8-1.5l-2.2-2.2l-2.2,2.2l2.2,0.8C-1.5-0.7,0.8-1.5,0.8-1.5z M-3-1.7l1.5-1.6c0,0,1.5,1.5,1.5,1.5
		c0.1,0-1,0-1,0l-0.5-0.5L-2-1.7H-3z M-1.5-0.5l2.2-0.8l-2.2,2.1l-2.2-2.1L-1.5-0.5L-1.5-0.5z"/>
</g>
</svg>
