<svg version="1.1" id="Layer_1" xmlns="http://www.w3.org/2000/svg" x="0" y="0" viewBox="0 0 40 40" xml:space="preserve"><style>.st1,.st2,.st3{fill:#00a3ff}.st2,.st3{opacity:.6;enable-background:new}.st3{opacity:.2}</style><linearGradient id="SVGID_1_" gradientUnits="userSpaceOnUse" x1="20" y1="2138.625" x2="20" y2="2101.375" gradientTransform="translate(0 -2100)"><stop offset="0" stop-color="#b1e9ff"/><stop offset=".175" stop-color="#cdeefb"/><stop offset=".354" stop-color="#e1f1f8"/><stop offset=".532" stop-color="#eef3f7"/><stop offset=".703" stop-color="#f2f4f6"/><stop offset="1" stop-color="#fdfafa"/></linearGradient><path d="M37 26.3V13.7c0-2.1-1.1-4.1-3-5.2L23 2.2c-1.8-1.1-4.2-1.1-6 0L6 8.5c-1.9 1.1-3 3.1-3 5.2v12.6c0 2.1 1.1 4.1 3 5.2l11 6.3c1.8 1.1 4.2 1.1 6 0l11-6.3c1.8-1.1 3-3.1 3-5.2z" fill="url(#SVGID_1_)"/><path class="st1" d="M13.3 17.8l-.2.3c-2.2 3.3-1.7 7.7 1.2 10.5 1.7 1.6 3.9 2.5 6.1 2.5-.1 0-.1 0-7.1-13.3z"/><path class="st2" d="M20.3 21.9l-7-4 7 13.2v-9.2z"/><path class="st2" d="M27.3 17.8l.2.3c2.2 3.3 1.7 7.7-1.2 10.5-1.7 1.6-3.9 2.5-6.1 2.5.1 0 .1 0 7.1-13.3z"/><path class="st3" d="M20.3 21.9l7-4-7 13.2v-9.2zM20.3 12.9v6.9l6.1-3.5-6.1-3.4z"/><path class="st2" d="M20.3 12.9l-6.1 3.5 6.1 3.5v-7z"/><path class="st1" d="M20.3 7.1l-6.1 9.3 6.1-3.5V7.1z"/><path class="st2" d="M20.3 12.9l6.1 3.5-6.1-9.3v5.8z"/></svg>