<?xml version="1.0" encoding="utf-8"?>
<svg viewBox="0 0 51 40" width="51px" height="40px" fill="none" xmlns="http://www.w3.org/2000/svg">
  <defs>
    <linearGradient id="paint0_linear_677_431" x1="0.339915" y1="-5.7092" x2="10.6788" y2="40.3288" gradientUnits="userSpaceOnUse">
      <stop stop-color="#FFAF5B"/>
      <stop offset="1" stop-color="#F6642D"/>
    </linearGradient>
    <linearGradient id="paint1_linear_677_431" x1="39.7056" y1="10.2652" x2="23.3016" y2="49.8297" gradientUnits="userSpaceOnUse">
      <stop stop-color="#5A2FBA"/>
      <stop offset="1" stop-color="#2F0C6A"/>
    </linearGradient>
    <linearGradient id="paint2_linear_677_431" x1="24.7842" y1="-5.18026" x2="11.2504" y2="38.1342" gradientUnits="userSpaceOnUse">
      <stop stop-color="#F6642D"/>
      <stop offset="1" stop-color="#D42E58"/>
    </linearGradient>
  </defs>
  <g id="GradientStacked" style="" transform="matrix(0.6575880646705627, 0, 0, 0.5555810332298279, 8.731438636779785, 8.700820922851562)">
    <path id="Vector" d="M11.1188 28.8481C8.80903 27.5702 8.71999 19.0801 11.4435 11.4071C11.4435 11.4071 4.12142 10.7367 1.36124 19.5934C-0.466667 25.4699 0.858432 30.8541 3.06344 35.0756C6.295 41.6068 9.96653 32.9544 11.1188 28.8481Z" fill="url(#paint0_linear_677_431)"/>
    <path id="Vector_2" d="M42.0049 26.4964C47.8867 5.72952 50.5002 0.675293 50.5002 0.675293C35.7303 3.57166 33.1535 11.0404 29.9743 21.1855C29.3981 23.0344 27.9631 27.4549 26.6851 31.3778C26.5961 31.6554 26.5018 31.933 26.4127 32.2106C24.9986 35.9711 21.568 36.0968 20.3477 34.3475C20.9709 35.7878 22.7988 37.8881 24.433 38.7104C30.4718 41.8895 38.5743 39.6845 42.0102 26.5016L42.0049 26.4964Z" fill="url(#paint1_linear_677_431)"/>
    <path id="Vector_3" d="M26.0715 17.493C25.1916 20.2794 24.1964 23.6052 23.1123 27.4967C22.3947 30.0789 21.3839 32.2472 20.2002 34.028C20.2002 34.028 20.4673 34.6093 20.6873 34.9917C21.5253 36.4529 25.003 35.9344 26.4119 32.2001C26.501 31.9277 26.59 31.6501 26.6843 31.3673C26.9671 30.4979 27.2604 29.6075 27.5432 28.7223C25.6315 26.3654 24.9716 22.0968 26.0767 17.4878L26.0715 17.493Z" fill="#200050"/>
    <path id="Vector_4" d="M23.1134 27.4968C27.1306 13.104 29.9327 6.4209 29.9327 6.4209C17.4883 8.32213 15.4509 14.361 12.7588 22.893C9.61628 35.4683 6.38996 38.6737 3.2998 35.5155C4.80298 38.04 6.87181 39.0141 7.67316 39.3336C13.3978 41.6067 20.238 37.8043 23.1134 27.4915V27.4968Z" fill="url(#paint2_linear_677_431)"/>
  </g>
</svg>
